<?xml version="1.0" encoding="utf-8"?>
<!-- Generator: Adobe Illustrator 18.0.0, SVG Export Plug-In . SVG Version: 6.00 Build 0)  -->
<!DOCTYPE svg PUBLIC "-//W3C//DTD SVG 1.1//EN" "http://www.w3.org/Graphics/SVG/1.1/DTD/svg11.dtd">
<svg version="1.1" id="Layer_1" xmlns="http://www.w3.org/2000/svg" xmlns:xlink="http://www.w3.org/1999/xlink" x="0px" y="0px"
	 viewBox="0 0 1080 1080" enable-background="new 0 0 1080 1080" xml:space="preserve">
<path fill="#8B3F98" d="M1024.4,484.4H157.8l376.6-376.6c21.7-21.7,21.7-56.9,0-78.6c-21.7-21.7-56.9-21.7-78.6,0l-417,417
	C13.8,471.3,0,504.6,0,540c0,35.4,13.8,68.7,38.8,93.7l417,417.1c10.9,10.9,25.1,16.3,39.3,16.3c14.2,0,28.4-5.4,39.3-16.3
	c21.7-21.7,21.7-56.9,0-78.6L157.9,595.6h866.6c30.7,0,55.6-24.9,55.6-55.6S1055.1,484.4,1024.4,484.4z"/>
</svg>
