<?xml version="1.0" encoding="utf-8"?>
<!-- Generator: Adobe Illustrator 18.0.0, SVG Export Plug-In . SVG Version: 6.00 Build 0)  -->
<!DOCTYPE svg PUBLIC "-//W3C//DTD SVG 1.1//EN" "http://www.w3.org/Graphics/SVG/1.1/DTD/svg11.dtd">
<svg version="1.1" id="Layer_1" xmlns="http://www.w3.org/2000/svg" xmlns:xlink="http://www.w3.org/1999/xlink" x="0px" y="0px"
	 viewBox="0 0 1080 1080" enable-background="new 0 0 1080 1080" xml:space="preserve">
<g>
	<path fill="#60BDEB" d="M739.2,592.9v-98c0-96.4-82.3-149.2-97.5-158.8c-15.2-9.6-28.5-20.7-28.2-45.1c0.3-18-30.9-42.6-47.4-54.4
		l-0.2-0.2c-2.1-1.7-1.4-3.9,0.1-5c0.1-0.1,0.1-0.1,0.1-0.1c0.2-0.2,0.5-0.3,0.7-0.5c14.7-11.2,32.8-29.1,43-39.6
		c11.4-1.4,22.4-1.2,29.5-1.7c9.8-0.7,20.4,2.7,24.7,4.3c0.8,0.3,1.5-0.5,1.2-1.2c-2.2-5.4-9.5-20.1-23.8-23.9
		c-6.5-1.8-16.9-2.8-27.6-3.3c-1.9-0.1-3.6-1-4.8-2.5c-8.8-12.2-27.6-30.9-60.2-30.9c-3.8,0-7.5,0.4-11.2,0.9
		c0,0-42.2-49.9-59.7-85.8c9.9-0.9,19.9-1.4,30.1-1.4c178.1,0,322.5,144.4,322.5,322.5C830.5,455.6,795.7,534.9,739.2,592.9z"/>
	<path fill="#A2CB3A" d="M478.6,110.3c5.7,4.7,23.3,20.6,33.9,30.4c-31,15.6-53.5,50.6-53.5,94.1c0,33.5,14.7,43.4,14.7,70.5
		c0,27.1-60.1,42-92.7,85.6s-53.3,98.7-59.2,120.8c-5.5,20.1-25.7,58.9-28.6,96.9c-66-59.1-107.6-144.9-107.6-240.5
		c0-168,128.3-305.9,292.3-321.1c17.6,35.9,59.7,85.8,59.7,85.8c-13.3-11.4-40.1-34.5-46-40.5c-7.9-8.1-12-20.3-13.9-22.7
		c-1.9-2.4-8.4-0.2-6.7,8.3c1,4.8,2,10.8,2.8,15.2c-1.2-0.8-2.2-1.6-3-2.2c-9.4-6.7-16.1-18.8-28-22.7c-12-3.9-17.5,5.3-12.9,12.1
		c3.3,4.8,20,9.4,23.5,10.8C462.3,94.7,470.1,103.4,478.6,110.3z"/>
	<g>
		<g>
			<path fill="#60BDEB" d="M152.5,864v-40.1c-7.9,14.9-17.7,26.2-29.5,33.7s-25.7,11.3-41.5,11.3c-26.2,0-46.5-9.7-60.9-29
				c-14.5-19.3-21.7-44.7-21.7-76c0-33.8,8.1-62,24.3-84.5c16.2-22.5,38.4-33.7,66.5-33.7c8.2,0,16.1,1,23.5,2.9
				c7.5,2,14.1,4.7,19.9,8.4c5.8,3.6,12.3,9.5,19.3,17.8v-121h38.7V864H152.5z M152.5,701.3c-13.4-11.8-23.9-19.2-31.7-22.1
				c-7.8-2.9-16.2-4.4-25.2-4.4c-18.9,0-32.9,7.9-42,23.8c-9.1,15.9-13.7,36.3-13.7,61.4c0,23.2,4,41.5,12.1,54.9
				c8.1,13.4,20.5,20.1,37.4,20.1c10.7,0,21.4-2.9,31.9-8.9c10.5-5.9,20.9-14.7,31.1-26.4V701.3z"/>
			<path fill="#60BDEB" d="M388.9,836.8c-11.7,10.6-23.2,18.6-34.6,24s-22.5,8.1-33.4,8.1c-15.3,0-29.5-5-42.6-14.9
				s-19.7-24.5-19.7-43.6c0-21,9.2-38.3,27.5-52c18.3-13.7,47.6-20.5,87.9-20.5h9.2V712c0-10.2-1.4-17.7-4.2-22.4
				c-2.8-4.7-7.2-8.3-13.1-10.9c-5.9-2.6-13.3-3.9-22.1-3.9c-20.4,0-42.6,6.3-66.7,18.9v-32c26.4-10.6,51.3-15.9,74.6-15.9
				c12.7,0,24.4,2,35.1,6c10.7,4,19.2,10.3,25.6,18.9c6.4,8.6,9.5,22.4,9.5,41.4v96.8c0,10.8,0.9,18,2.6,21.7
				c1.7,3.7,4.1,6.6,7.2,8.6c3.1,2,6.6,2.9,10.7,2.9c1.7,0,4.2-0.3,7.5-0.8l2.7,21.4c-8.8,4.2-18.5,6.3-29.1,6.3
				c-7.1,0-13.9-2.3-20.4-6.9C396.5,857.4,391.8,849,388.9,836.8z M383.2,815.8v-55.2l-12.6-0.4c-20.7,0-38.1,3.9-52.2,11.8
				c-14,7.9-21.1,18.5-21.1,32c0,9.3,3.4,17.2,10.3,23.6c6.9,6.4,14.9,9.6,24.2,9.6c8.3,0,16.7-1.8,25.3-5.4
				C365.7,828.2,374.4,822.9,383.2,815.8z"/>
			<path fill="#60BDEB" d="M507.4,864V650.6h38.7v39.9c9.8-14.3,21.3-25.3,34.3-33.1c13-7.8,26.6-11.7,40.6-11.7
				c18.1,0,32.8,5.7,44,17.2c11.3,11.5,16.9,27.4,16.9,47.7V864h-38.7V723.1c0-14.8-1.3-24.6-3.9-29.3c-2.6-4.7-6.3-8.4-11-10.9
				c-4.7-2.6-9.8-3.8-15.1-3.8c-9.6,0-19.9,2.9-30.9,8.8c-11.1,5.9-23.1,18.5-36.1,37.8V864H507.4z"/>
			<path fill="#60BDEB" d="M772.5,864V679.6h-30.3v-29.1h30.3V625c0-17.6,2.2-31.3,6.8-41.4c4.5-10,11.9-18.3,22.2-25
				c10.3-6.6,23.7-9.9,40.3-9.9c13.1,0,27.9,2.2,44.3,6.5v30.7c-17.4-5.4-31.4-8.1-41.9-8.1c-6,0-11.5,1-16.5,2.9
				c-5,1.9-9,5.3-12,10.1c-3,4.8-4.5,14.9-4.5,30.1v29.7h53.3v29.1h-53.3V864H772.5z"/>
			<path fill="#60BDEB" d="M1080.2,857.1c-26.3,7.9-48.9,11.8-67.6,11.8c-33.6,0-60.1-11.2-79.4-33.5
				c-19.3-22.3-28.9-48.7-28.9-79.1c0-20,4.3-39.1,12.8-57.2c8.5-18.1,19.6-31.5,33.4-40.3c13.8-8.8,29.9-13.2,48.6-13.2
				c25,0,44.9,8.8,59.8,26.5c14.9,17.7,22.3,44.1,22.3,79.4l-0.2,11.8H943.8c2.1,18.9,6.3,33.4,12.4,43.6
				c6.1,10.2,14.3,18.2,24.5,23.9c10.2,5.7,23.2,8.6,39,8.6c8,0,16-0.7,23.9-2.1c7.9-1.4,20.1-5,36.6-10.9V857.1z M945.6,734.3h96.9
				c0-21.3-4.3-36.6-12.8-45.8c-8.6-9.2-19.5-13.8-32.9-13.8c-15.2,0-27.1,4.9-35.7,14.8C952.5,699.5,947.3,714.4,945.6,734.3z"/>
		</g>
		<g>
			<path fill="#A2CB3A" d="M153.4,1004.2c0-6.4-1.9-11.6-5.6-15.5c-3.7-4-10.2-7.5-19.6-10.6c-10.6-3.3-18.7-7.5-24.1-12.6
				c-5.5-5.2-8.2-12-8.2-20.7c0-8.9,3.1-16.2,9.2-21.9c6.1-5.7,14-8.5,23.7-8.5c10.1,0,18.3,3.3,24.5,10c6.2,6.7,9.2,14.8,9,24.4
				l-0.2,0.5h-9c0-7.7-2.1-14.1-6.4-19c-4.3-4.9-10.2-7.4-17.7-7.4c-7.3,0-13,2.1-17,6.2c-4.1,4.1-6.1,9.3-6.1,15.5
				c0,5.8,2,10.6,5.9,14.5c3.9,3.9,10.6,7.4,20,10.3c10.4,3.2,18.2,7.5,23.6,13c5.4,5.5,8,12.7,8,21.6c0,9.3-3.2,16.7-9.5,22.2
				c-6.3,5.5-14.5,8.2-24.4,8.2c-9.8,0-18.3-2.9-25.5-8.8c-7.2-5.9-10.7-14.4-10.4-25.5l0.2-0.5h9c0,9.1,2.6,15.9,7.9,20.2
				c5.3,4.3,11.6,6.5,18.9,6.5c7.3,0,13.1-2,17.5-6C151.2,1016.2,153.4,1010.8,153.4,1004.2z"/>
			<path fill="#A2CB3A" d="M287.2,990.8c0,14.1-3.3,24.9-9.9,32.4c-6.6,7.4-15.6,11.2-27.1,11.2c-11.3,0-20.1-3.7-26.5-11.2
				c-6.4-7.4-9.6-18.2-9.6-32.4v-32.7c0-14.1,3.2-25,9.6-32.5c6.4-7.5,15.2-11.2,26.5-11.2c11.5,0,20.5,3.8,27.1,11.3
				c6.6,7.5,9.9,18.3,9.9,32.4V990.8z M277.7,957.9c0-11.5-2.4-20.2-7.1-26c-4.8-5.8-11.6-8.7-20.4-8.7c-8.6,0-15.2,2.9-19.8,8.7
				c-4.6,5.8-6.9,14.5-6.9,26v32.9c0,11.7,2.3,20.4,6.9,26.3c4.6,5.8,11.2,8.7,19.9,8.7c8.9,0,15.6-2.9,20.4-8.7
				c4.7-5.8,7.1-14.6,7.1-26.3V957.9z"/>
			<path fill="#A2CB3A" d="M354.5,1024.5h47.1v8.2h-56.8V916.1h9.7V1024.5z"/>
			<path fill="#A2CB3A" d="M515.9,916.1v81.6c0,11.9-3.2,21-9.5,27.3c-6.4,6.3-14.6,9.4-24.8,9.4c-10,0-18.1-3.1-24.3-9.4
				c-6.2-6.3-9.3-15.4-9.3-27.3v-81.6h9.4v81.7c0,9.1,2.2,16.2,6.7,21c4.5,4.9,10.3,7.3,17.4,7.3c7.5,0,13.5-2.3,18-7
				c4.5-4.7,6.8-11.8,6.8-21.4v-81.7H515.9z"/>
			<path fill="#A2CB3A" d="M640.9,924.6h-32.6v108.1h-9.6V924.6h-32.5v-8.5h74.7V924.6z"/>
			<path fill="#A2CB3A" d="M704.6,1032.7h-9.7V916.1h9.7V1032.7z"/>
			<path fill="#A2CB3A" d="M836.9,990.8c0,14.1-3.3,24.9-9.9,32.4c-6.6,7.4-15.6,11.2-27.1,11.2c-11.3,0-20.1-3.7-26.5-11.2
				c-6.4-7.4-9.6-18.2-9.6-32.4v-32.7c0-14.1,3.2-25,9.6-32.5c6.4-7.5,15.2-11.2,26.5-11.2c11.5,0,20.5,3.8,27.1,11.3
				c6.6,7.5,9.9,18.3,9.9,32.4V990.8z M827.3,957.9c0-11.5-2.4-20.2-7.1-26c-4.8-5.8-11.6-8.7-20.4-8.7c-8.6,0-15.2,2.9-19.8,8.7
				c-4.6,5.8-6.9,14.5-6.9,26v32.9c0,11.7,2.3,20.4,6.9,26.3c4.6,5.8,11.2,8.7,19.9,8.7c8.9,0,15.6-2.9,20.4-8.7
				c4.7-5.8,7.1-14.6,7.1-26.3V957.9z"/>
			<path fill="#A2CB3A" d="M966.3,1032.7h-9.6l-52-97.6l-0.5,0.1v97.5h-9.7V916.1h9.7l52,97.6l0.5-0.1v-97.5h9.6V1032.7z"/>
		</g>
	</g>
</g>
</svg>
