<?xml version="1.0" encoding="utf-8"?>
<!-- Generator: Adobe Illustrator 18.0.0, SVG Export Plug-In . SVG Version: 6.00 Build 0)  -->
<!DOCTYPE svg PUBLIC "-//W3C//DTD SVG 1.1//EN" "http://www.w3.org/Graphics/SVG/1.1/DTD/svg11.dtd">
<svg version="1.1" id="Layer_1" xmlns="http://www.w3.org/2000/svg" xmlns:xlink="http://www.w3.org/1999/xlink" x="0px" y="0px"
	 viewBox="0 0 1080 1080" enable-background="new 0 0 1080 1080" xml:space="preserve">
<g>
	<g>
		<rect x="0" y="0" fill="#562366" width="1080" height="1080"/>
	</g>
	<g>
		<g>
			<path fill="#964D9E" d="M540,925.6c-212.6,0-385.6-173-385.6-385.6s173-385.6,385.6-385.6s385.6,173,385.6,385.6
				S752.6,925.6,540,925.6z M540,172.9c-202.4,0-367.1,164.7-367.1,367.1S337.6,907.1,540,907.1S907.1,742.4,907.1,540
				S742.4,172.9,540,172.9z"/>
		</g>
		<g>
			<path fill="#964D9E" d="M383,739.7c-2.1,0-4.2-0.7-5.9-2.1C317.9,688.7,284,616.7,284,540c0-60.4,21.4-119,60.3-165.1
				c3.3-3.9,9.1-4.4,13-1.1c3.9,3.3,4.4,9.1,1.1,13c-36.1,42.7-56,97.1-56,153.2c0,71.1,31.5,138,86.4,183.3c3.9,3.3,4.5,9.1,1.2,13
				C388.3,738.5,385.7,739.7,383,739.7z"/>
		</g>
		<g>
			<path fill="#964D9E" d="M540,796c-12.8,0-25.6-1-38.2-2.8c-5.1-0.8-8.5-5.5-7.8-10.5c0.8-5.1,5.5-8.6,10.5-7.8
				c22.2,3.3,45.3,3.5,67.6,0.5c5.1-0.7,9.7,2.9,10.4,7.9c0.7,5.1-2.9,9.7-7.9,10.4C563.2,795.3,551.6,796,540,796z"/>
		</g>
		<g>
			<path fill="#964D9E" d="M703.9,733.8c-2.6,0-5.1-1-6.9-3.1c-3.4-3.8-3.1-9.7,0.8-13.1c50.7-45.1,79.8-109.8,79.8-177.6
				c0-63.6-24.8-123.4-69.9-168.3c-3.6-3.6-3.6-9.5,0-13.1c3.6-3.6,9.5-3.6,13.1,0C769.3,407,796,471.4,796,540
				c0,73.1-31.3,142.8-86,191.4C708.3,733,706.1,733.8,703.9,733.8z"/>
		</g>
		<g>
			<path fill="#964D9E" d="M593.7,308.3c-0.7,0-1.3-0.1-2-0.2c-28.9-6.4-59.6-7.4-89-2.7c-5,0.8-9.8-2.7-10.6-7.7
				c-0.8-5,2.7-9.8,7.7-10.6c31.6-5,64.6-4,95.8,3c5,1.1,8.1,6.1,7,11C601.8,305.4,598,308.3,593.7,308.3z"/>
		</g>
		<g>
			<path fill="#964D9E" d="M623,772.9c-24.6,0-40.5-15-40.5-38.3c0-9.9-0.1-20.4-0.2-31.3c-0.6-57-1.4-127.8,12.8-199.5
				c-27.9-3.6-43.1-21.8-43.1-51.7c0-72.3,30.5-126.8,71-126.8c40.5,0,71,54.5,71,126.8c0,29.9-15.3,48.1-43.1,51.7
				c14.2,71.6,13.5,142.1,12.8,199c-0.1,11.1-0.2,21.7-0.2,31.8C663.6,757.9,647.7,772.9,623,772.9z M623,343.9
				c-29.4,0-52.5,47.6-52.5,108.3c0,22.1,9.1,32.2,30.4,33.7c4.2,0.3,8.1,2.4,10.6,5.7c2.5,3.3,3.5,7.6,2.6,11.7
				c-14.7,71.2-13.9,142.6-13.3,199.9c0.1,11,0.2,21.5,0.2,31.5c0,16.3,12,19.8,22,19.8s22-3.4,22-19.8c0-10.1,0.1-20.8,0.2-32
				c0.6-57.1,1.4-128.2-13.3-199.4c-0.9-4.1,0.1-8.4,2.6-11.7c2.5-3.3,6.4-5.4,10.6-5.7c21.3-1.5,30.4-11.6,30.4-33.7
				C675.6,391.4,652.5,343.9,623,343.9z"/>
		</g>
		<g>
			<path fill="#964D9E" d="M457,772.9c-24.6,0-40.5-15-40.5-38.3c0-9.9-0.1-20.4-0.2-31.3c-0.6-57-1.4-127.8,12.8-199.5
				c-27.9-3.6-43.1-21.8-43.1-51.7V334.6c0-5.1,4.1-9.3,9.3-9.3s9.3,4.1,9.3,9.3v117.5c0,22.1,9.1,32.2,30.4,33.7
				c4.2,0.3,8.1,2.4,10.6,5.7c2.5,3.3,3.5,7.6,2.6,11.7c-14.7,71.3-13.9,142.6-13.3,199.9c0.1,11,0.2,21.5,0.2,31.5
				c0,16.3,12,19.8,22,19.8s22-3.4,22-19.8c0-10.1,0.1-20.8,0.2-32c0.6-57.1,1.4-128.2-13.3-199.4c-0.8-4.1,0.1-8.4,2.6-11.7
				c2.5-3.3,6.4-5.4,10.6-5.7c21.3-1.5,30.4-11.6,30.4-33.7V334.6c0-5.1,4.1-9.3,9.3-9.3c5.1,0,9.3,4.1,9.3,9.3v117.5
				c0,29.9-15.3,48.1-43.1,51.7c14.2,71.6,13.5,142.1,12.8,199c-0.1,11.1-0.2,21.7-0.2,31.8C497.5,757.9,481.6,772.9,457,772.9z"/>
		</g>
		<g>
			<path fill="#964D9E" d="M436.4,457.1c-5.1,0-9.3-4.1-9.3-9.3V334.6c0-5.1,4.1-9.3,9.3-9.3c5.1,0,9.3,4.1,9.3,9.3v113.2
				C445.6,452.9,441.5,457.1,436.4,457.1z"/>
		</g>
		<g>
			<path fill="#964D9E" d="M477.5,457.1c-5.1,0-9.3-4.1-9.3-9.3V334.6c0-5.1,4.1-9.3,9.3-9.3c5.1,0,9.3,4.1,9.3,9.3v113.2
				C486.8,452.9,482.7,457.1,477.5,457.1z"/>
		</g>
	</g>
</g>
</svg>
