<?xml version="1.0" encoding="utf-8"?>
<!-- Generator: Adobe Illustrator 18.0.0, SVG Export Plug-In . SVG Version: 6.00 Build 0)  -->
<!DOCTYPE svg PUBLIC "-//W3C//DTD SVG 1.1//EN" "http://www.w3.org/Graphics/SVG/1.1/DTD/svg11.dtd">
<svg version="1.1" id="Layer_1" xmlns="http://www.w3.org/2000/svg" xmlns:xlink="http://www.w3.org/1999/xlink" x="0px" y="0px"
	 viewBox="0 0 1080 583.6" enable-background="new 0 0 1080 583.6" xml:space="preserve">
<g>
	<path fill="#FBBB18" d="M604.8,125.4H460.1c-7.6,0-13.8,6.2-13.8,13.8s6.2,13.8,13.8,13.8h58.5v44.7h-58.5
		c-32.3,0-58.5-26.3-58.5-58.5s26.3-58.5,58.5-58.5H655c7.6,0,13.8-6.2,13.8-13.8c0-7.6-6.2-13.8-13.8-13.8H460.1
		c-47.5,0-86.1,38.6-86.1,86.1s38.6,86.1,86.1,86.1h144.7c7.6,0,13.8-6.2,13.8-13.8s-6.2-13.8-13.8-13.8h-58.5V153h58.5
		c32.3,0,58.5,26.3,58.5,58.5S637.1,270,604.8,270H409.9c-7.6,0-13.8,6.2-13.8,13.8c0,7.6,6.2,13.8,13.8,13.8h194.9
		c47.5,0,86.1-38.6,86.1-86.1S652.3,125.4,604.8,125.4z"/>
	<g>
		<g>
			<path fill="#FBBB18" d="M79.8,497.9v-47.6H18.9v47.6H-0.4V383h19.4v49.9h60.9V383h19.4v114.9H79.8z"/>
			<path fill="#FBBB18" d="M210.3,454.2c0,26.3-18.5,44.3-45.5,44.3c-27.1,0-45.6-18.1-45.6-44.3c0-26.4,18.5-44.3,45.6-44.3
				C191.7,409.9,210.3,427.8,210.3,454.2z M138.1,454.4c0,16.9,11,28.4,26.8,28.4c15.6,0,26.6-11.5,26.6-28.4
				c0-16.7-11-28.2-26.6-28.2C149.1,426.2,138.1,437.7,138.1,454.4z"/>
			<path fill="#FBBB18" d="M276.8,492.3c-6.9,4.1-14.1,6.4-21.5,6.4c-13.1,0-24.4-7.6-24.4-25.4V428h-12.3v-14.1h12.3v-24h18.7v24
				h25.8V428h-25.8v41.9c0,9,3.4,11.8,9.4,11.8c3.9,0,8-1.3,13.1-3.8L276.8,492.3z"/>
			<path fill="#FBBB18" d="M368.8,461.5h-66c3,13.5,13.3,21.8,27.1,21.8c9.5,0,18.2-3.6,24.6-10.2l10,10.7
				c-8.5,9.4-21,14.8-36.1,14.8c-26.9,0-44.6-17.9-44.6-44.1c0-26.4,18.2-44.3,44.1-44.5C358.6,409.9,371.1,430,368.8,461.5z
				 M352.4,447.7c-0.7-14.1-10-22.7-24.3-22.7c-13.8,0-23.5,8.7-25.6,22.7H352.4z"/>
			<path fill="#FBBB18" d="M387.4,497.9V376.1h18.9v121.8H387.4z"/>
			<path fill="#FBBB18" d="M511.8,394l-8,17.1c-12.5-7.5-24.9-10.7-33.6-10.7c-11.3,0-18.7,4.3-18.7,12c0,25.1,62,11.7,61.9,53
				c0,20.5-18.1,33.1-43.3,33.1c-18,0-35.1-7.4-46.9-18.2l8.4-16.7c11.8,10.8,26.6,16.7,38.9,16.7c13.5,0,21.5-5.1,21.5-14
				c0-25.6-62-11.3-62-52.2c0-19.7,16.9-32,41.8-32C486.6,382.2,501.2,387,511.8,394z"/>
			<path fill="#FBBB18" d="M552.5,385.6c0,6.6-4.8,11.3-11,11.3c-6.2,0-11-4.8-11-11.3c0-6.7,4.8-11.5,11-11.5
				C547.8,374.2,552.5,378.9,552.5,385.6z M532.2,497.9v-87.3h18.7v87.3H532.2z"/>
			<path fill="#FBBB18" d="M721.4,443.6v54.3h-18.9v-49.1c0-13.3-7.9-21.3-20.7-21.3c-14.9,0.5-24,12-24,27.2v43.2H639v-49.1
				c0-13.3-7.7-21.3-20.5-21.3c-15.1,0.5-24.3,12-24.3,27.2v43.2h-18.7v-87.3h18.7v16.9c6.1-12.3,17.2-17.6,31.7-17.6
				c15.6,0,26.3,7.7,30.4,21c5.6-14.6,17.2-21,33.1-21C709.4,409.9,721.4,422.7,721.4,443.6z"/>
			<path fill="#FBBB18" d="M836.5,454.6c0,26.1-16.4,44-41.4,44c-14,0-24.5-5.6-30.9-15.8v46.9h-18.9V410.6h18.9v15.1
				c6.4-10.2,16.9-15.8,30.5-15.8C819.6,409.9,836.5,428,836.5,454.6z M817.5,453.9c0-16.2-11-28.2-26.6-28.2
				c-15.6,0-26.6,11.8-26.6,28.2c0,16.9,11,28.6,26.6,28.6C806.5,482.5,817.5,470.7,817.5,453.9z"/>
			<path fill="#FBBB18" d="M855.5,497.9V376.1h18.9v121.8H855.5z"/>
			<path fill="#FBBB18" d="M919.9,385.6c0,6.6-4.8,11.3-11,11.3s-11-4.8-11-11.3c0-6.7,4.8-11.5,11-11.5S919.9,378.9,919.9,385.6z
				 M899.5,497.9v-87.3h18.7v87.3H899.5z"/>
			<path fill="#FBBB18" d="M965.2,403.5v10.3H988V428h-22.8v69.9h-18.7V428H935v-14.1h11.5v-8.5c0-20.4,14.9-30,30-30
				c7.1,0,14.1,2,19.7,6.1l-7.2,14.4c-3.6-2.6-8-4.1-12-4.1C970.6,391.7,965.2,395.3,965.2,403.5z"/>
			<path fill="#FBBB18" d="M1040.7,509.9c-5.4,13.8-15.3,20.7-28.4,20.7c-7.9,0-14.1-2.3-20.2-7.4l8-14.6c4.1,3,7.4,4.3,11.3,4.3
				c5.7,0,10.3-3.1,13.3-9.7l3-6.6l-36.1-86h19.5l26.1,66.1l24.3-66.1h18.9L1040.7,509.9z"/>
		</g>
	</g>
</g>
</svg>
