<?xml version="1.0" encoding="utf-8"?>
<!-- Generator: Adobe Illustrator 18.0.0, SVG Export Plug-In . SVG Version: 6.00 Build 0)  -->
<!DOCTYPE svg PUBLIC "-//W3C//DTD SVG 1.1//EN" "http://www.w3.org/Graphics/SVG/1.1/DTD/svg11.dtd">
<svg version="1.1" id="Layer_1" xmlns="http://www.w3.org/2000/svg" xmlns:xlink="http://www.w3.org/1999/xlink" x="0px" y="0px"
	 viewBox="0 0 1080 1080" enable-background="new 0 0 1080 1080" xml:space="preserve">
<g>
	<g>
		<path fill="#FFFFFF" d="M985.9,773.9V846c0,23.2-18.9,42.1-42.1,42.1H136.2c-23.3,0-42.1-18.9-42.1-42.1v-72.2
			c0-34.3,27.8-62.2,62.1-62.2c93.6,0,93.6-160.4,93.6-340.8c0-132.6,88.9-244.3,210.4-279c-0.6-3.7-1-7.5-1-11.3
			c0-44.5,36.2-80.6,80.7-80.6c44.6,0,80.7,36.1,80.7,80.6c0,3.8-0.4,7.6-0.8,11.3c44.5,12.8,84.7,35.7,117.6,66.5
			c-74.9,30.9-127.8,104.8-127.8,190.9c0,114,92.5,206.4,206.5,206.4c6.3,0,12.5-0.2,18.6-0.8c7.9,92.7,29.7,156.7,88.8,156.7
			C958.1,711.7,985.9,739.6,985.9,773.9z"/>
		<path fill="#FFFFFF" d="M540,1080c74.7,0,136.7-55,147.4-126.7H392.6C403.3,1025,465.3,1080,540,1080z"/>
	</g>
	<circle fill="#FBBB18" cx="816.3" cy="349.3" r="124.9"/>
</g>
</svg>
