<?xml version="1.0" encoding="utf-8"?>
<!-- Generator: Adobe Illustrator 18.0.0, SVG Export Plug-In . SVG Version: 6.00 Build 0)  -->
<!DOCTYPE svg PUBLIC "-//W3C//DTD SVG 1.1//EN" "http://www.w3.org/Graphics/SVG/1.1/DTD/svg11.dtd">
<svg version="1.1" id="Layer_1" xmlns="http://www.w3.org/2000/svg" xmlns:xlink="http://www.w3.org/1999/xlink" x="0px" y="0px"
	 viewBox="0 0 1080 1080" enable-background="new 0 0 1080 1080" xml:space="preserve">
<g>
	<path fill="#8B3F98" d="M923.7,711.7c-93.5,0-93.5-160.4-93.5-340.8c0-132.6-88.9-244.3-210.4-279c0.5-3.7,0.9-7.4,0.9-11.2
		C620.7,36.1,584.6,0,540,0c-44.6,0-80.7,36.1-80.7,80.7c0,3.8,0.4,7.5,0.9,11.2c-121.4,34.7-210.4,146.4-210.4,279
		c0,180.4,0,340.8-93.5,340.8c-34.3,0-62.1,27.8-62.1,62.2V846c0,23.3,18.8,42.1,42.1,42.1h807.6c23.3,0,42.1-18.8,42.1-42.1v-72.2
		C985.9,739.5,958.1,711.7,923.7,711.7z"/>
	<path fill="#8B3F98" d="M540,1080c74.7,0,136.6-55,147.4-126.7H392.6C403.4,1025,465.3,1080,540,1080z"/>
</g>
</svg>
