<?xml version="1.0" encoding="utf-8"?>
<!-- Generator: Adobe Illustrator 18.0.0, SVG Export Plug-In . SVG Version: 6.00 Build 0)  -->
<!DOCTYPE svg PUBLIC "-//W3C//DTD SVG 1.1//EN" "http://www.w3.org/Graphics/SVG/1.1/DTD/svg11.dtd">
<svg version="1.1" id="Layer_1" xmlns="http://www.w3.org/2000/svg" xmlns:xlink="http://www.w3.org/1999/xlink" x="0px" y="0px"
	 viewBox="0 0 1080 1080" enable-background="new 0 0 1080 1080" xml:space="preserve">
<g>
	<g>
		<circle fill="#FFFFFF" cx="540" cy="367.3" r="172.7"/>
	</g>
	<g>
		<path fill="#FFFFFF" d="M851,919.9c0,13-0.9,26-2.4,38.5c-86.3,63.8-193,101.5-308.5,101.5c-115.6,0-222.2-37.7-308.5-101.5
			c-1.7-12.5-2.6-25.5-2.6-38.5C229,748.2,368.2,609,540,609C711.8,609,851,748.2,851,919.9z"/>
	</g>
	<g>
		<path fill="#FFFFFF" d="M540,1080C242.2,1080,0,837.8,0,540S242.2,0,540,0s540,242.2,540,540S837.8,1080,540,1080z M540,40.2
			C264.4,40.2,40.2,264.4,40.2,540s224.2,499.8,499.8,499.8s499.8-224.2,499.8-499.8S815.6,40.2,540,40.2z"/>
	</g>
</g>
</svg>
