<?xml version="1.0" encoding="utf-8"?>
<!-- Generator: Adobe Illustrator 18.0.0, SVG Export Plug-In . SVG Version: 6.00 Build 0)  -->
<!DOCTYPE svg PUBLIC "-//W3C//DTD SVG 1.1//EN" "http://www.w3.org/Graphics/SVG/1.1/DTD/svg11.dtd">
<svg version="1.1" id="Layer_1" xmlns="http://www.w3.org/2000/svg" xmlns:xlink="http://www.w3.org/1999/xlink" x="0px" y="0px"
	 viewBox="0 0 1080 1080" enable-background="new 0 0 1080 1080" xml:space="preserve">
<path fill="#8B3F98" d="M966.1,614.3h-49.6c-15.8,0-28.9,12.1-30.1,27.8c-15.2,191.2-186.1,339.2-385.5,317
	C341.9,941.4,213.5,812.9,195.8,654c-20.2-180.7,99.5-337.9,264.4-377.1v103.6c0,31.7,38.3,47.5,60.7,25.1L689,237.4
	c13.9-13.9,13.9-36.4,0-50.3L520.9,19c-22.4-22.4-60.7-6.5-60.7,25.1v120.3c-230.3,41-401.5,254.9-373.9,502.3
	c23.4,209.7,192.3,378.6,402,402c264.2,29.4,490.3-167.8,508.3-421.7C997.8,629.4,983.8,614.3,966.1,614.3z"/>
</svg>
