<?xml version="1.0" encoding="utf-8"?>
<!-- Generator: Adobe Illustrator 18.0.0, SVG Export Plug-In . SVG Version: 6.00 Build 0)  -->
<!DOCTYPE svg PUBLIC "-//W3C//DTD SVG 1.1//EN" "http://www.w3.org/Graphics/SVG/1.1/DTD/svg11.dtd">
<svg version="1.1" id="Layer_1" xmlns="http://www.w3.org/2000/svg" xmlns:xlink="http://www.w3.org/1999/xlink" x="0px" y="0px"
	 viewBox="0 0 1080 1080" enable-background="new 0 0 1080 1080" xml:space="preserve">
<path fill="#FFFFFF" d="M1060.3,988.8L703.9,632.5c50.7-65.8,81.1-148,81.1-237.5C785.1,179.6,610.4,4.9,395,4.9S4.9,179.6,4.9,395
	S179.6,785.1,395,785.1c89.5,0,171.7-30.5,237.5-81.1l356.3,356.3c9.9,9.9,22.8,14.8,35.7,14.8c12.9,0,25.9-4.9,35.7-14.8
	C1080,1040.5,1080,1008.5,1060.3,988.8z M395,684c-159.4,0-289-129.7-289-289s129.7-289,289-289s289,129.7,289,289
	S554.4,684,395,684z"/>
</svg>
