<?xml version="1.0" encoding="utf-8"?>
<!-- Generator: Adobe Illustrator 18.0.0, SVG Export Plug-In . SVG Version: 6.00 Build 0)  -->
<!DOCTYPE svg PUBLIC "-//W3C//DTD SVG 1.1//EN" "http://www.w3.org/Graphics/SVG/1.1/DTD/svg11.dtd">
<svg version="1.1" id="Layer_1" xmlns="http://www.w3.org/2000/svg" xmlns:xlink="http://www.w3.org/1999/xlink" x="0px" y="0px"
	 viewBox="0 0 1080 1080" enable-background="new 0 0 1080 1080" xml:space="preserve">
<g>
	<path fill="#4C8C40" d="M976.2,484.7H644.6c-2.4,0-4.4,2-4.4,4.4v84.5c0,2.4,1.9,4.3,4.3,4.3h311.4c11.2,0,20.3-9.1,20.3-20.3
		V484.7z"/>
	<polygon fill="#3D5C2B" points="774.3,495.4 791.9,571.5 765.8,571.5 748.2,495.4 	"/>
	<path fill="#4C8C40" d="M198.4,579.7h-78.7c-7.2,0-13.1-5.9-13.1-13.1v-304c0-14.7,11.9-26.6,26.6-26.6h40
		c14,0,25.3,11.3,25.3,25.3V579.7z"/>
	<path fill="#4C8C40" d="M884.5,579.7h41.4c27.4,0,49.6-22.2,49.6-49.6V257.4c0-11.8-9.6-21.4-21.4-21.4h-60.7
		c-5.4,0-9.8,4.4-9.8,9.8l-8.5,324.4C875,575.4,879.2,579.7,884.5,579.7z"/>
	<path fill="#4C8C40" d="M106.5,484.7h310.8c13.9,0,25.2,11.3,25.2,25.2v63.8c0,2.4-1.9,4.3-4.3,4.3H108.9c-1.3,0-2.4-1.1-2.4-2.4
		V484.7z"/>
	<polygon fill="#4C8C40" points="351,304.5 540,515.5 732.3,304.5 	"/>
	<path fill="#010101" d="M987.3,830.2L926,588.5h19.9c19.8,0,35.9-16.1,35.9-35.9V265.9c0-19.8-16.1-35.9-35.9-35.9h-38.4
		c-19.8,0-35.9,16.1-35.9,35.9v199.9c0,6.9-5.6,12.6-12.6,12.6H744.3l-15.8-68.7h5.9c20.9,0,38-17,38-38v-41.4c0-20.9-17-38-38-38
		H345.7c-20.9,0-38,17-38,38v41.4c0,20.9,17,38,38,38h5.9l-15.8,68.7H221c-6.9,0-12.6-5.6-12.6-12.6V265.9
		c0-19.8-16.1-35.9-35.9-35.9h-38.4c-19.8,0-35.9,16.1-35.9,35.9v286.7c0,19.8,16.1,35.9,35.9,35.9H154L92.7,830.2
		c-2.1,8.5,3,17.1,11.5,19.2c1.3,0.3,2.6,0.5,3.9,0.5c7.1,0,13.5-4.8,15.3-11.9l63.3-249.5h123.7l-55.8,242c-2,8.5,3.3,17,11.8,18.9
		c1.2,0.3,2.4,0.4,3.6,0.4c7.2,0,13.7-4.9,15.4-12.3l57.4-249.1h21.6l57.2,249.1c1.7,7.3,8.2,12.3,15.4,12.3c1.2,0,2.4-0.1,3.6-0.4
		c8.5-1.9,13.8-10.4,11.9-18.9l-55.6-242h20.3c19.8,0,35.9-16.1,35.9-35.9v-38.4c0-19.8-16.1-35.9-35.9-35.9h-48.9l15.8-68.7h47
		l95,106.9c3.6,4,8.7,6.3,14,6.3h0c5.4,0,10.5-2.3,14-6.3l95-106.9h47l15.8,68.7h-48.9c-19.8,0-35.9,16.1-35.9,35.9v38.4
		c0,19.8,16.1,35.9,35.9,35.9h20.3l-55.6,242c-1.9,8.5,3.4,17,11.9,18.9c1.2,0.3,2.4,0.4,3.6,0.4c7.2,0,13.7-5,15.4-12.3l57.2-249.1
		h21.6l57.4,249.1c1.7,7.3,8.2,12.3,15.4,12.3c1.2,0,2.4-0.1,3.6-0.4c8.5-1.9,13.8-10.4,11.8-18.9l-55.8-242h123.7L956.6,838
		c1.8,7.2,8.2,11.9,15.3,11.9c1.3,0,2.6-0.1,3.9-0.5C984.3,847.3,989.4,838.7,987.3,830.2z M314.3,571.5H134.1
		c-10.4,0-18.9-8.4-18.9-18.9V265.9c0-10.4,8.5-18.9,18.9-18.9h38.4c10.4,0,18.9,8.4,18.9,18.9v199.9c0,16.3,13.3,29.6,29.6,29.6
		h110.8L314.3,571.5z M417.1,495.4c10.4,0,18.9,8.5,18.9,18.9v38.4c0,10.4-8.4,18.9-18.9,18.9h-70.4l17.5-76.1H417.1z M541.3,505.3
		c-0.4,0.5-0.9,0.6-1.3,0.6c-0.4,0-0.9-0.1-1.3-0.6L364.6,309.4h350.7L541.3,505.3z M662.9,571.5c-10.4,0-18.9-8.4-18.9-18.9v-38.4
		c0-10.4,8.4-18.9,18.9-18.9h52.9l17.5,76.1H662.9z M765.7,571.5l-17.5-76.1H859c16.3,0,29.6-13.3,29.6-29.6V265.9
		c0-10.4,8.5-18.9,18.9-18.9h38.4c10.4,0,18.9,8.4,18.9,18.9v286.7c0,10.4-8.4,18.9-18.9,18.9H765.7z"/>
	<polygon fill="#3D5C2B" points="305.7,495.4 288.2,571.5 314.3,571.5 331.8,495.4 	"/>
</g>
</svg>
